<svg xmlns="http://www.w3.org/2000/svg" width="37" height="37" viewBox="0 0 37 37">
  <path id="Path_4" data-name="Path 4" d="M18.429,37h0Zm.131,0h0Zm-.187,0h0Zm.247,0h0Zm-.3,0h0Zm.361,0h0Zm.06,0h0Zm-.49,0h0Zm.55,0h0Zm-.607,0h0Zm.667,0h0Zm-.721,0h0Zm-.068,0h0Zm.849,0h0Zm-.908,0h0Zm.968,0h0Zm.059,0h0Zm-1.082,0h0Zm-.052,0h0Zm1.193,0h0Zm.059,0h0Zm-1.328,0h0Zm-.054,0h0Zm1.441,0h0Zm-1.494,0h0Zm1.553,0h0Zm-1.628,0h0Zm1.687,0h0Zm-1.74,0h0Zm1.8,0h0Zm-1.852,0h0Zm1.911,0h0Zm.059,0h0l.027,0Zm-2.018,0h-.027l.027,0Zm2.077,0h-.012l.029,0Zm-2.157,0,.029,0h-.029Zm-.052,0,.029,0h-.029Zm2.268,0H19.61l.029,0Zm-2.318,0,.026,0-.025,0-.025,0h.023Zm2.377,0-.025,0,.026,0h.023l-.025,0Zm.059,0h-.009l.028,0h-.019Zm-2.512,0,.028,0h-.028Zm-.052,0,.027,0h-.027Zm2.623,0H19.79l.027,0Zm-2.674,0,.025,0h-.025Zm2.733,0h-.02l.025,0h-.006Zm-2.8-.006.022,0h-.022Zm2.862,0h-.005l.022,0Zm.059,0h-.011l.022,0Zm-2.974,0,.022,0h-.022Zm-.052,0,.019,0h-.019Zm3.085,0h-.013l.019,0ZM16.9,36.931h0Zm3.2,0h0Zm.059-.005h0Zm-3.322,0h0Zm-.054,0h0Zm3.434,0h0Zm-4.606-.146a18.5,18.5,0,1,1,5.781,0V23.848H25.7l.82-5.348H21.391V15.03a2.674,2.674,0,0,1,3.015-2.889h2.333V7.588A28.448,28.448,0,0,0,22.6,7.227c-4.226,0-6.988,2.561-6.988,7.2V18.5h-4.7v5.348h4.7Z" fill="#3d3d3d" fill-rule="evenodd"/>
</svg>
