<svg xmlns="http://www.w3.org/2000/svg" width="37" height="37" viewBox="0 0 37 37">
  <path id="Path_6" data-name="Path 6" d="M18.5,0A18.5,18.5,0,1,1,0,18.5,18.509,18.509,0,0,1,18.5,0ZM12.716,28.9V14.45h-4.8V28.9Zm17.316,0V20.612c0-4.438-2.369-6.5-5.529-6.5A4.77,4.77,0,0,0,20.175,16.5V14.45h-4.8c.064,1.355,0,14.447,0,14.447h4.8V20.828a3.283,3.283,0,0,1,.158-1.172A2.628,2.628,0,0,1,22.8,17.9c1.737,0,2.433,1.325,2.433,3.267V28.9h4.8ZM10.347,7.483a2.5,2.5,0,1,0-.064,4.993h.031a2.5,2.5,0,1,0,.033-4.993Z" fill="#3d3d3d" fill-rule="evenodd"/>
</svg>
