<svg xmlns="http://www.w3.org/2000/svg" width="37" height="37" viewBox="0 0 37 37">
  <path id="Path_5" data-name="Path 5" d="M18.5,0A18.5,18.5,0,1,1,0,18.5,18.509,18.509,0,0,1,18.5,0ZM15.241,28.34A12.577,12.577,0,0,0,27.9,15.677c0-.194,0-.388-.009-.572A9.117,9.117,0,0,0,30.119,12.8a9.032,9.032,0,0,1-2.557.7,4.448,4.448,0,0,0,1.957-2.464,9.013,9.013,0,0,1-2.824,1.08A4.453,4.453,0,0,0,19,15.16a4.08,4.08,0,0,0,.12,1.015,12.625,12.625,0,0,1-9.174-4.652,4.448,4.448,0,0,0,1.384,5.934A4.372,4.372,0,0,1,9.316,16.9v.055a4.455,4.455,0,0,0,3.572,4.365,4.439,4.439,0,0,1-1.172.157,4.245,4.245,0,0,1-.84-.083,4.443,4.443,0,0,0,4.153,3.092,8.946,8.946,0,0,1-5.528,1.9,8.1,8.1,0,0,1-1.061-.065,12.4,12.4,0,0,0,6.8,2.012Z" fill="#3d3d3d" fill-rule="evenodd"/>
</svg>
